<svg width="52" height="52" viewBox="0 0 52 52" fill="none" xmlns="http://www.w3.org/2000/svg">
<rect width="52" height="52" rx="26" fill="white"/>
<path d="M27.0281 16C28.1531 16.003 28.7241 16.009 29.2171 16.023L29.4111 16.03C29.6351 16.038 29.8561 16.048 30.1231 16.06C31.1871 16.11 31.9131 16.278 32.5501 16.525C33.2101 16.779 33.7661 17.123 34.3221 17.678C34.8308 18.1777 35.2243 18.7825 35.4751 19.45C35.7221 20.087 35.8901 20.813 35.9401 21.878C35.9521 22.144 35.9621 22.365 35.9701 22.59L35.9761 22.784C35.9911 23.276 35.9971 23.847 35.9991 24.972L36.0001 25.718V27.028C36.0025 27.7574 35.9948 28.4868 35.9771 29.216L35.9711 29.41C35.9631 29.635 35.9531 29.856 35.9411 30.122C35.8911 31.187 35.7211 31.912 35.4751 32.55C35.2243 33.2175 34.8308 33.8223 34.3221 34.322C33.8223 34.8307 33.2176 35.2242 32.5501 35.475C31.9131 35.722 31.1871 35.89 30.1231 35.94L29.4111 35.97L29.2171 35.976C28.7241 35.99 28.1531 35.997 27.0281 35.999L26.2821 36H24.9731C24.2433 36.0026 23.5136 35.9949 22.7841 35.977L22.5901 35.971C22.3527 35.962 22.1154 35.9517 21.8781 35.94C20.8141 35.89 20.0881 35.722 19.4501 35.475C18.7829 35.2241 18.1785 34.8306 17.6791 34.322C17.17 33.8224 16.7762 33.2176 16.5251 32.55C16.2781 31.913 16.1101 31.187 16.0601 30.122L16.0301 29.41L16.0251 29.216C16.0066 28.4868 15.9983 27.7574 16.0001 27.028V24.972C15.9973 24.2426 16.0046 23.5132 16.0221 22.784L16.0291 22.59C16.0371 22.365 16.0471 22.144 16.0591 21.878C16.1091 20.813 16.2771 20.088 16.5241 19.45C16.7758 18.7822 17.1703 18.1774 17.6801 17.678C18.1792 17.1695 18.7833 16.7761 19.4501 16.525C20.0881 16.278 20.8131 16.11 21.8781 16.06C22.1441 16.048 22.3661 16.038 22.5901 16.03L22.7841 16.024C23.5133 16.0062 24.2427 15.9986 24.9721 16.001L27.0281 16ZM26.0001 21C24.674 21 23.4022 21.5268 22.4645 22.4645C21.5269 23.4021 21.0001 24.6739 21.0001 26C21.0001 27.3261 21.5269 28.5979 22.4645 29.5355C23.4022 30.4732 24.674 31 26.0001 31C27.3262 31 28.5979 30.4732 29.5356 29.5355C30.4733 28.5979 31.0001 27.3261 31.0001 26C31.0001 24.6739 30.4733 23.4021 29.5356 22.4645C28.5979 21.5268 27.3262 21 26.0001 21ZM26.0001 23C26.394 22.9999 26.7842 23.0775 27.1482 23.2282C27.5122 23.3789 27.8429 23.5998 28.1215 23.8783C28.4002 24.1569 28.6212 24.4875 28.772 24.8515C28.9229 25.2154 29.0005 25.6055 29.0006 25.9995C29.0006 26.3935 28.9231 26.7836 28.7724 27.1476C28.6217 27.5116 28.4008 27.8423 28.1223 28.121C27.8437 28.3996 27.513 28.6206 27.1491 28.7714C26.7851 28.9223 26.395 28.9999 26.0011 29C25.2054 29 24.4424 28.6839 23.8798 28.1213C23.3172 27.5587 23.0011 26.7956 23.0011 26C23.0011 25.2044 23.3172 24.4413 23.8798 23.8787C24.4424 23.3161 25.2054 23 26.0011 23M31.2511 19.5C30.9196 19.5 30.6016 19.6317 30.3672 19.8661C30.1328 20.1005 30.0011 20.4185 30.0011 20.75C30.0011 21.0815 30.1328 21.3995 30.3672 21.6339C30.6016 21.8683 30.9196 22 31.2511 22C31.5826 22 31.9005 21.8683 32.135 21.6339C32.3694 21.3995 32.5011 21.0815 32.5011 20.75C32.5011 20.4185 32.3694 20.1005 32.135 19.8661C31.9005 19.6317 31.5826 19.5 31.2511 19.5Z" fill="black"/>
</svg>
