<svg width="52" height="52" viewBox="0 0 52 52" fill="none" xmlns="http://www.w3.org/2000/svg">
<rect width="52" height="52" rx="26" fill="white"/>
<path fill-rule="evenodd" clip-rule="evenodd" d="M33.7769 18.43C34.024 18.326 34.2945 18.2901 34.5602 18.3261C34.8259 18.3621 35.0771 18.4686 35.2876 18.6347C35.4981 18.8007 35.6603 19.0201 35.7573 19.27C35.8542 19.52 35.8824 19.7914 35.8389 20.056L33.5709 33.813C33.3509 35.14 31.8949 35.901 30.6779 35.24C29.6599 34.687 28.1479 33.835 26.7879 32.946C26.1079 32.501 24.0249 31.076 24.2809 30.062C24.5009 29.195 28.0009 25.937 30.0009 24C30.7859 23.239 30.4279 22.8 29.5009 23.5C27.1989 25.238 23.5029 27.881 22.2809 28.625C21.2029 29.281 20.6409 29.393 19.9689 29.281C18.7429 29.077 17.6059 28.761 16.6779 28.376C15.4239 27.856 15.4849 26.132 16.6769 25.63L33.7769 18.43Z" fill="black"/>
</svg>
