<svg width="52" height="52" viewBox="0 0 52 52" fill="none" xmlns="http://www.w3.org/2000/svg">
<rect width="52" height="52" rx="26" fill="white"/>
<path d="M35.504 32.3814H33.222C32.359 32.3814 32.099 31.6824 30.552 30.1344C29.2 28.8314 28.629 28.6694 28.287 28.6694C27.814 28.6694 27.685 28.7994 27.685 29.4504V31.5024C27.685 32.0574 27.505 32.3824 26.055 32.3824C24.6483 32.2879 23.2842 31.8606 22.075 31.1356C20.8658 30.4106 19.8461 29.4087 19.1 28.2124C17.329 26.0071 16.0964 23.4193 15.5 20.6544C15.5 20.3124 15.63 20.0024 16.282 20.0024H18.562C19.148 20.0024 19.359 20.2634 19.589 20.8664C20.696 24.1244 22.585 26.9584 23.352 26.9584C23.646 26.9584 23.774 26.8284 23.774 26.0954V22.7394C23.677 21.2084 22.864 21.0794 22.864 20.5254C22.8743 20.3793 22.9411 20.2429 23.0504 20.1452C23.1596 20.0476 23.3026 19.9963 23.449 20.0024H27.033C27.523 20.0024 27.685 20.2464 27.685 20.8324V25.3624C27.685 25.8514 27.895 26.0134 28.043 26.0134C28.337 26.0134 28.563 25.8514 29.102 25.3134C30.2569 23.9041 31.2008 22.3343 31.904 20.6534C31.9756 20.4514 32.1116 20.2784 32.2909 20.161C32.4703 20.0436 32.6832 19.9883 32.897 20.0034H35.178C35.862 20.0034 36.007 20.3454 35.862 20.8334C35.0321 22.6917 34.0056 24.4558 32.8 26.0954C32.554 26.4704 32.456 26.6654 32.8 27.1054C33.026 27.4474 33.826 28.1154 34.363 28.7504C35.145 29.5304 35.794 30.4324 36.285 31.4204C36.481 32.0564 36.155 32.3814 35.504 32.3814Z" fill="black"/>
</svg>
