<svg width="78" height="117" viewBox="0 0 78 117" fill="none" xmlns="http://www.w3.org/2000/svg">
<g clip-path="url(#clip0_571_2)">
<path d="M36.9682 90.1723L36.7422 90.1444C35.4211 89.9798 33.4263 89.7315 31.5946 91.7487C30.8009 92.6248 29.8872 94.6503 29.7128 95.0479L29.1339 96.362L31.2361 96.7121H29.0557V99.8104L29.8662 100.087L28.0248 99.8564V103.881L28.6805 104.033L27.7458 104.067L27.577 104.938C27.5533 105.06 26.9995 107.936 26.9019 109.584C26.7931 111.441 27.9216 114.264 28.5284 114.97C29.438 116.027 31.2417 116.631 32.6255 116.845C33.2924 116.947 33.9117 116.998 34.4851 116.998C35.9931 116.998 37.176 116.644 38.013 115.939C39.1918 114.948 39.634 113.928 40.0246 113.027C40.1334 112.776 40.2367 112.538 40.3538 112.304C40.969 111.074 41.5382 108.037 41.601 107.695L41.7907 106.664L40.1948 106.266H41.6191V102.423H42.5049V98.9427H42.8593L42.9067 97.8769C42.9304 97.3343 43.0211 94.5596 42.3975 93.2386C41.1867 90.6731 38.0102 90.2951 36.9668 90.1696L36.9682 90.1723Z" fill="#231F20"/>
<path d="M74.8612 78.1604C75.8559 77.0653 77.1979 74.9017 77.2551 74.8096L77.4225 74.539L77.4015 54.8639C77.4364 54.3841 77.5982 51.156 75.9703 48.9171C74.4734 46.8594 70.5772 46.48 69.0176 46.4102C68.0216 44.9287 64.9623 40.3783 63.3386 37.9816C61.2154 34.8457 51.5675 31.7055 50.4753 31.3582L50.3106 31.3052H34.2975L34.0143 23.7554C34.8024 26.3739 37.2367 28.2878 40.109 28.2878C43.6188 28.2878 46.473 25.4322 46.473 21.9238V10.1137C46.473 9.60178 46.4102 9.10516 46.2958 8.62807L48.5781 8.86801L46.9668 30.5365H55.0941L56.3384 9.64084L61.0787 10.0719L61.977 2.79139L45.4561 1.34199L45.085 6.15195C43.9174 4.68859 42.122 3.74836 40.109 3.74836C36.5992 3.74836 33.745 6.60393 33.745 10.1124V16.5545L33.1201 0H25.4434L25.8758 9.84451L22.7385 0H15.4943L17.3064 32.2245H22.2488C19.8913 32.9917 16.6702 34.3226 13.7589 36.4932C9.51947 39.6529 8.0059 43.9564 7.52463 45.8425C6.54813 45.929 5.00386 46.2721 3.37032 47.4481C0.69471 49.3746 0.046035 52.6947 0.01953 52.8342L0 52.936V72.7353L0.01953 72.8399C0.07254 73.1119 0.55521 75.535 1.40476 76.8101C2.29059 78.1381 4.53514 79.1746 4.97736 79.3685L5.19219 79.4634H12.3904L12.5899 79.3838C12.7587 79.3155 14.2681 78.6947 15.0772 77.7698C15.6449 77.1211 16.2127 75.6132 16.5517 74.5962C17.51 76.4711 20.487 79.9474 24.8324 80.3031C25.0472 80.3213 25.2537 80.3366 25.4573 80.3506L25.3653 82.3873C24.9007 81.9116 24.4027 81.5573 23.9047 81.4666C23.1947 81.3368 22.2977 81.6326 20.2289 83.4921C20.1382 83.573 20.0475 83.6553 19.9597 83.7362L19.6723 79.7117L3.31591 81.8321L3.38427 84.0529L14.9516 84.8355L15.9086 91.3836H13.6849V93.497C13.0837 92.5345 11.6929 91.791 11.0637 91.491L10.8364 91.3822H2.3436V114.609H8.53321L8.72014 106.452C12.0667 106.219 12.396 106.055 12.5801 105.963C12.7587 105.873 13.0865 105.709 13.6835 104.679V114.609H24.8198V109.096H19.1031V105.516H23.7889V100.285H19.1031V96.9873H24.8198V91.3808H18.0415L23.3983 87.2879L27.0811 89.545L27.2583 89.877L27.2681 89.6594L31.1671 92.049L27.2987 80.4454C28.5556 80.4887 29.5042 80.4664 30.1794 80.4259V86.5751L31.1685 88.5518H31.4851V89.0847H35.0675V88.5518H36.3621L36.3467 89.4892H40.1913V88.4848H41.1595V89.0847H45.4086V88.4848H48.3493V87.9924H48.6562L47.476 91.3822H43.9592V114.609H50.1488L50.3358 106.452C53.6824 106.219 54.0116 106.055 54.1971 105.963C54.3227 105.9 54.5194 105.801 54.8318 105.395V114.609H76.372V109.096H70.6553V105.516H75.3411V100.285H70.6553V96.9873H76.372V91.3808H65.2357V108.908H60.9071V91.3808H54.8318V92.9195C54.1483 92.2402 53.176 91.7254 52.678 91.4883L52.4506 91.3794H47.6755L51.4811 89.146L51.4852 89.2451L51.5689 89.0944L55.4791 86.7997L63.0344 92.3267L64.2495 84.3668L76.3776 83.5814L76.4432 81.3605L61.1372 79.462L71.7574 79.4592C72.1019 79.4745 73.6727 79.4634 74.8612 78.1562V78.1604ZM39.5357 21.642V10.2072C39.5357 9.8473 39.8398 9.5418 40.2011 9.5418C40.5624 9.5418 40.8665 9.84591 40.8665 10.2072V21.642C40.8665 22.0019 40.5624 22.3074 40.2011 22.3074C39.8398 22.3074 39.5357 22.0033 39.5357 21.642ZM9.09121 96.8144V101.283L9.01309 101.412H8.41743V96.6149H8.9824L9.09121 96.8144ZM50.7054 96.8144V101.283L50.6273 101.412H50.0317V96.6149H50.5966L50.7054 96.8144ZM33.1689 59.4047C33.9975 59.4047 35.7204 60.3365 36.4011 61.6227C36.8085 62.3913 36.6676 66.6824 36.2825 70.2229C36.2379 70.4614 35.7022 72.9334 32.9806 73.4035C31.7404 73.6183 27.2081 73.2751 25.4811 72.1591C23.8447 71.1017 22.638 69.0218 22.2851 68.3633L22.1233 59.4033C24.9928 59.4033 32.3612 59.4033 33.1703 59.4033L33.1689 59.4047ZM9.96448 67.1846L10.111 72.7478C9.80406 73.0115 9.24048 73.3881 8.52066 73.3881C7.84827 73.3881 7.46185 72.9138 7.29864 72.6502L7.49812 61.9589V67.1832H9.96448V67.1846ZM58.025 45.9011C55.6033 41.8988 50.0568 41.3882 49.821 41.3673L44.8771 40.953V37.8226C46.187 37.8366 47.2737 37.8463 47.5862 37.8477C48.0954 37.8993 50.3665 38.7322 52.1925 39.4018C53.4759 39.8719 54.8025 40.3587 56.0525 40.787C58.4309 41.6003 59.9975 45.629 60.4523 47.2821V51.3457C59.9278 49.7541 59.1326 47.7327 58.0236 45.9011H58.025ZM67.465 72.42V53.2192H70.1545L70.5437 53.9V71.7392L70.1545 72.42H67.465ZM7.53021 60.2668L7.65576 53.5401C7.9501 53.4062 8.31141 53.2653 8.64621 53.1983C8.89173 53.1495 9.34789 53.2388 9.77337 53.3657L9.97285 59.3363L15.8388 59.2108C15.8346 59.5567 15.8318 59.9096 15.8305 60.2668H7.53021ZM16.4805 52.2804C16.3661 50.3386 16.1792 50.001 16.0564 49.7792C15.7454 49.2184 15.1846 48.2014 14.8442 47.5848C15.4845 46.3782 17.2659 43.2701 19.5509 41.331C22.1819 39.099 27.6084 37.9175 28.4064 37.7529H29.7093V40.6754H27.9195C27.0979 40.6754 24.9189 41.5975 23.2365 42.3703L21.2863 43.2673L43.8616 56.4361L44.3707 56.2268C44.3931 56.2185 46.5958 55.3285 49.1361 55.4652C51.5954 55.5977 52.8147 56.0329 52.9737 56.0929C53.6377 56.4347 55.348 57.5563 55.8279 58.9345C56.524 60.9378 56.8462 64.1058 56.849 64.1379L56.9076 64.7252L60.4523 66.6545V67.1567L56.5296 65.2106L56.337 66.7744C56.3357 66.7884 56.132 68.2671 55.1764 69.7193C53.9028 71.6555 51.9233 72.6376 49.2909 72.6376C46.4256 72.6376 44.4321 71.6249 43.1989 69.5407C42.2741 67.9783 41.7844 65.7728 41.7844 63.1614C41.7844 59.36 42.8279 57.6302 42.899 57.5158L43.6244 56.5337L21.649 44.0053L21.0533 44.746C20.9027 44.9343 17.6119 49.051 16.4805 52.2776V52.2804ZM22.9059 19.9429L26.2539 31.3052H25.7601L25.6624 31.3233C25.5731 31.3387 24.8142 31.4796 23.6466 31.8032L22.9059 19.9429ZM59.4172 79.2513L59.1117 83.3373C58.9889 83.2285 58.862 83.1182 58.7337 83.008C56.5937 81.1666 55.6786 80.8723 54.963 80.9965C54.4217 81.0899 53.8791 81.4805 53.3741 81.9981L53.2541 79.462C55.3633 78.9514 57.6846 77.9805 59.1605 76.1391C59.5818 75.6132 60.0394 75.0286 60.4537 74.4651V79.3797L59.4172 79.2513Z" fill="#231F20"/>
<path d="M18.3618 31.1082L16.6738 1.11572H21.9232L27.3595 18.1738L26.609 1.11572H32.0453L33.1697 31.1082H27.3595L21.1727 10.1135L22.4854 31.1082H18.3618Z" fill="white"/>
<path d="M40.1049 4.86572C37.2186 4.86572 34.8555 7.22746 34.8555 10.1137V21.9238C34.8555 24.81 37.2172 27.1732 40.1049 27.1732C42.9925 27.1732 45.3542 24.8114 45.3542 21.9238V10.1137C45.3542 7.22746 42.9925 4.86572 40.1049 4.86572ZM41.9797 21.642C41.9797 22.6213 41.179 23.4234 40.1983 23.4234C39.2176 23.4234 38.4169 22.6227 38.4169 21.642V10.2072C38.4169 9.22789 39.2176 8.42576 40.1983 8.42576C41.179 8.42576 41.9797 9.22649 41.9797 10.2072V21.642Z" fill="white"/>
<path d="M48.167 29.4218L49.7699 7.87187L46.0996 7.48545L46.4804 2.55273L60.7262 3.80265L60.1012 8.86371L55.2899 8.42708L54.0413 29.4218H48.167Z" fill="white"/>
<path d="M60.1626 54.4471C60.1626 54.4471 59.2251 50.0417 57.0699 46.4803C54.9146 42.9189 49.728 42.4808 49.728 42.4808L43.7602 41.9814V38.6069H30.8257V41.7931H27.92C27.1708 41.7931 23.7029 43.3862 23.7029 43.3862L43.9471 55.1963C43.9471 55.1963 46.3744 54.2002 49.1965 54.3523C52.0186 54.5043 53.4373 55.0791 53.4373 55.0791C53.4373 55.0791 56.1324 56.4141 56.8815 58.5708C57.6321 60.726 57.9599 64.0308 57.9599 64.0308L60.8447 65.6002L60.1626 54.4471ZM49.29 50.9792C48.5408 51.0726 42.8227 52.8541 42.8227 52.8541L42.2731 50.2301C42.2731 50.2301 47.8838 49.8548 49.29 49.1992C50.6961 48.5435 54.5393 47.6061 54.5393 47.6061L55.0081 49.481C55.0081 49.481 50.0405 50.8871 49.2914 50.9806L49.29 50.9792Z" fill="white"/>
<path d="M3.45898 82.94L15.9247 83.784L16.9514 90.8134L23.3294 85.9393L29.1409 89.5007L26.5169 81.6273L26.33 85.7509C26.33 85.7509 24.7369 82.7517 23.706 82.5648C22.6751 82.3778 19.0202 86.2197 19.0202 86.2197L18.6449 80.9717L3.46177 82.94H3.45898Z" fill="white"/>
<path d="M14.7988 92.5H23.7031V95.8745H17.9864V101.404H22.6722V104.404H17.9864V110.214H23.7031V113.495H14.7988V92.5Z" fill="white"/>
<path d="M66.3496 92.5H75.2525V95.8745H69.5358V101.404H74.2216V104.404H69.5358V110.214H75.2525V113.495H66.3496V92.5Z" fill="white"/>
<path d="M12.832 94.2795C12.5502 93.4355 10.5832 92.498 10.5832 92.498H3.45898V113.493H7.44171L7.62724 105.405C7.62724 105.405 11.7062 105.151 12.0815 104.964C12.4567 104.777 13.2993 102.995 13.2993 102.995V99.9962C13.2993 99.9962 13.1124 95.122 12.8306 94.2795H12.832ZM10.2066 100.091V101.591L9.64441 102.528H7.30081V95.4987H9.64441L10.2066 96.5296V100.091Z" fill="white"/>
<path d="M28.6731 105.152C28.6731 105.152 28.1109 108.058 28.0175 109.651C27.924 111.244 28.994 113.799 29.3762 114.244C30.0486 115.025 31.5789 115.556 32.7967 115.743C34.0146 115.93 36.1085 116.086 37.2956 115.087C38.5693 114.015 38.7952 112.932 39.3574 111.806C39.9196 110.681 40.5055 107.495 40.5055 107.495L37.8745 106.839V105.152H40.5055V102.997H38.7129V101.31H41.3913V99.5291L38.9138 99.0129V97.8299H41.7959C41.7959 97.8299 41.9298 94.8558 41.3913 93.7175C40.5055 91.8426 38.1912 91.4423 36.8381 91.2804C35.5254 91.1242 33.9532 90.8117 32.4229 92.4983C31.71 93.2837 30.7363 95.4975 30.7363 95.4975L32.9851 95.8728L32.7033 97.8286H30.1727V99.0115L32.2346 99.7146L32.1411 101.496L29.1418 101.121V102.996L31.4854 103.54L31.2985 105.057L28.6745 105.151L28.6731 105.152Z" fill="white"/>
<path d="M55.9454 92.5H59.7873V110.027H65.1301V113.495H55.9454V92.5Z" fill="white"/>
<path d="M54.4458 94.2795C54.164 93.4355 52.1971 92.498 52.1971 92.498H45.0742V113.493H49.0569L49.2425 105.405C49.2425 105.405 53.3215 105.151 53.6967 104.964C54.072 104.777 54.9145 102.995 54.9145 102.995V99.9962C54.9145 99.9962 54.7276 95.122 54.4458 94.2795ZM51.8204 100.091V101.591L51.2583 102.528H48.9147V95.4987H51.2583L51.8204 96.5296V100.091Z" fill="white"/>
<path d="M76.3046 82.4722L63.2809 83.3162L62.2082 90.3456L55.5456 85.4715L49.4746 89.0329L52.2158 81.1595L52.4111 85.2832C52.4111 85.2832 54.0753 82.2839 55.1523 82.097C56.2292 81.9101 60.0487 85.7519 60.0487 85.7519L60.4407 80.5039L76.3032 82.4722H76.3046Z" fill="white"/>
<path d="M76.2828 54.8208C76.2828 54.8208 76.5646 51.6346 75.065 49.5714C73.5654 47.5096 68.4108 47.5096 68.4108 47.5096C68.4108 47.5096 64.3807 41.5111 62.4123 38.6053C60.444 35.6996 50.1336 32.4199 50.1336 32.4199H25.8578C25.8578 32.4199 19.5775 33.5443 14.423 37.3875C9.26845 41.2307 8.42447 46.9474 8.42447 46.9474C8.42447 46.9474 6.36266 46.6657 4.01906 48.3536C1.67547 50.0402 1.11328 53.0394 1.11328 53.0394V72.628C1.11328 72.628 1.582 75.065 2.33112 76.1894C3.08163 77.3138 5.42383 78.3447 5.42383 78.3447H12.1728C12.1728 78.3447 13.579 77.7825 14.2346 77.032C14.8903 76.2829 15.7343 73.4706 15.7343 73.4706V61.3801H8.6114V66.0659H11.0485L11.2354 73.1888C11.2354 73.1888 10.2045 74.5015 8.51794 74.5015C6.83138 74.5015 6.17434 72.9084 6.17434 72.9084L6.54959 52.8511C6.54959 52.8511 7.48703 52.2889 8.42447 52.1006C9.36191 51.9136 10.8615 52.5693 10.8615 52.5693L11.0485 58.1925L15.4539 58.0991C15.4539 58.0991 15.5473 51.1631 15.0786 50.3192C14.6099 49.4752 13.579 47.6017 13.579 47.6017C13.579 47.6017 15.7343 43.1028 18.8284 40.4788C21.9211 37.8548 28.2948 36.6356 28.2948 36.6356H38.7085C38.7085 36.6356 46.7591 36.7291 47.6016 36.7291C48.4442 36.7291 52.851 38.5105 56.4124 39.7283C59.9739 40.9462 61.567 47.133 61.567 47.133V78.3461L71.7826 78.3433C71.7826 78.3433 73.0953 78.4368 74.0313 77.4059C74.9687 76.375 76.3009 74.2197 76.3009 74.2197L76.28 54.818L76.2828 54.8208ZM71.6598 72.0365L70.8005 73.5361H66.349V52.1034H70.8005L71.6598 53.603V72.0365Z" fill="white"/>
<path d="M57.4448 66.9127C57.4448 66.9127 56.6009 73.7552 49.2911 73.7552C41.9813 73.7552 40.6686 67.5697 40.6686 63.1643C40.6686 58.7589 41.9813 56.884 41.9813 56.884L21.924 45.4492C21.924 45.4492 18.0807 50.2299 17.3316 53.3226C16.5825 56.4153 17.1447 72.6308 17.3316 73.5668C17.5186 74.5043 20.3309 78.8162 24.9232 79.1901C29.5155 79.5653 31.297 79.1901 31.297 79.1901V86.3129L31.8591 87.4373H32.6027V87.9702H33.953V87.4373H34.8584L35.4206 86.4999L36.4041 86.172L36.3566 87.4373H37.4963L37.481 88.3748H39.0741V87.3703H40.105V86.126L40.9071 86.3548L41.5111 87.1569L42.2742 87.1778V87.9702H44.2914V87.2336L44.8857 87.2504L44.9163 86.3129H45.6417V86.8765H46.2458V87.369H47.232V86.8765H47.6603V86.3129H48.4485V78.9083C48.4485 78.9083 55.3872 79.0617 58.2902 75.4403C60.5627 72.6057 60.7273 71.9723 60.7273 71.9723L60.8472 68.5978L57.4476 66.9113L57.4448 66.9127ZM22.6717 53.603L35.6061 55.3844V57.5397L22.6717 55.9466V53.603ZM33.1691 74.5043C31.7559 74.7484 26.9348 74.4289 24.8744 73.0981C22.6243 71.6459 21.1721 68.6467 21.1721 68.6467L20.9851 58.2902C20.9851 58.2902 32.1619 58.2902 33.1691 58.2902C34.458 58.2902 36.5436 59.508 37.3861 61.1025C38.2301 62.6956 37.3861 70.382 37.3861 70.382C37.3861 70.382 36.8337 73.8737 33.1691 74.5057V74.5043ZM38.8969 79.3784C38.7923 80.9715 38.664 82.9398 38.664 82.9398C38.664 82.9398 37.2927 82.658 37.0123 81.8155C36.7305 80.9715 36.8253 80.1289 37.0123 79.098C37.1992 78.0671 38.4184 76.0988 38.4184 76.0988C38.4184 76.0988 39.0029 77.7853 38.8983 79.3798L38.8969 79.3784ZM42.1222 81.9536C41.8822 82.6929 40.7132 82.9398 40.7132 82.9398C40.7132 82.9398 40.603 81.2142 40.5137 79.8178C40.4244 78.4214 40.9225 76.9413 40.9225 76.9413C40.9225 76.9413 41.9617 78.667 42.1222 79.5709C42.2826 80.4749 42.3621 81.2142 42.1222 81.9536Z" fill="white"/>
</g>
<defs>
<clipPath id="clip0_571_2">
<rect width="77.4225" height="117" fill="white"/>
</clipPath>
</defs>
</svg>
