<svg width="28" height="24" viewBox="0 0 28 24" fill="none" xmlns="http://www.w3.org/2000/svg">
<path fill-rule="evenodd" clip-rule="evenodd" d="M24.3693 0.40662C24.6988 0.267941 25.0595 0.220112 25.4137 0.26811C25.768 0.316107 26.1029 0.458178 26.3836 0.679534C26.6643 0.900889 26.8805 1.19344 27.0098 1.52673C27.1391 1.86002 27.1767 2.22187 27.1187 2.57462L24.0946 20.9173C23.8013 22.6866 21.86 23.7013 20.2373 22.82C18.88 22.0826 16.864 20.9466 15.0507 19.7613C14.144 19.168 11.3667 17.268 11.708 15.916C12.0013 14.76 16.668 10.416 19.3347 7.83329C20.3813 6.81862 19.904 6.23329 18.668 7.16662C15.5987 9.48395 10.6707 13.008 9.04132 14C7.60399 14.8746 6.85465 15.024 5.95865 14.8746C4.32399 14.6026 2.80799 14.1813 1.57065 13.668C-0.101348 12.9746 -0.0200143 10.676 1.56932 10.0066L24.3693 0.40662Z" fill="white"/>
</svg>
